<svg id="a8cd8432-0ec1-45be-8883-5d69ea8f90b6" data-name="a5730932-3c90-4e7e-b0ad-7bc8de4fb927" xmlns="http://www.w3.org/2000/svg" viewBox="0 0 512.56655 815.32024"><defs><style>.bdc1d971-f27d-44f6-b7fe-725f8a67f935{fill:#20a3a7;}</style></defs><title>perso orion</title><path class="bdc1d971-f27d-44f6-b7fe-725f8a67f935" d="M262.19934,455.88917c-6.51242,2.70755-12.99264,5.44946-19.51,8.10034-10.5542,4.29291-20.98733,8.94479-31.73791,12.67816-13.37444,4.64459-26.83364,9.21262-41.09473,10.57709-3.51984.33679-6.99913,1.09692-10.7876,1.70941-.62507-9.34366-3.672-17.635-7.74168-25.57669-2.29241-4.47348-4.87462-8.79767-7.20957-13.25027-4.0108-7.64856-7.25744-15.51832-8.08485-24.29361-.23032-2.44281-1.812-4.86792-3.144-7.07795-5.49638-9.11935-11.16972-18.17224-14.35078-28.41369-2.71427-8.73856-5.07891-17.59439-7.30277-26.47232a16.12954,16.12954,0,0,0-4.94122-8.64756c-5.772-5.01519-11.74149-9.80346-17.49965-14.834C75.57758,328.84129,64.122,315.80494,55.315,300.52943a132.45713,132.45713,0,0,0-9.07422-14.51178C40.719,278.79734,38.5,270.52039,37.40434,261.829c-2.06463-16.3772-3.89587-32.78374-5.87446-49.172a43.31917,43.31917,0,0,0-1.22769-5.94449c-.418-1.56567-1.52369-1.8529-2.4928-.55134a64.66248,64.66248,0,0,0-3.5532,5.62233c-2.86463,4.81358-6.53369,8.61369-12.18991,10.053a9.30925,9.30925,0,0,1-9.33622-2.50157A7.92823,7.92823,0,0,1,.731,210.0218c2.524-5.95522,5.21594-11.84288,7.97577-17.69361,3.01467-6.391,6.08323-12.75329,6.87612-19.89215.37338-3.36181.72513-6.74159.78782-10.11876.09974-5.37182,1.181-10.50116,4.49286-14.73118,14.10907-18.02072,21.37347-39.26169,28.787-60.44467C55.0124,71.82066,60.23506,56.46269,68.22987,42.212,74.58446,30.885,82.82339,21.0012,91.37758,11.38184,97.184,4.85241,105.43481,3.00452,113.55586.90022c11.92815-3.09078,20.98247,2.17988,29.12808,9.6614,10.96438,10.07047,14.494,22.60955,12.40761,37.3942-1.13479,8.04148-5.458,13.74224-10.44935,19.19089-15.635,17.06761-31.63059,33.80532-47.23571,50.89978-8.15338,8.9315-15.753,18.36712-23.66616,27.52026-2.01484,2.33057-4.29943,4.42615-6.39746,6.68777-.52945.57078-1.29184,1.49367-1.14463,2.03751,1.80561,6.67023-.10769,13.133-1.52142,19.43428-1.94729,8.67943-1.54548,16.7692,2.45587,24.76215,3.936,7.86242,7.28648,16.03024,11.45657,23.76051,7.21058,13.36661,11.30106,27.68332,13.68427,42.5282.87036,5.42139,3.30371,9.28393,7.94017,12.068,7.79568,4.68116,15.52,9.48233,23.23093,14.30252a37.57177,37.57177,0,0,1,4.85473,3.6811c3.53,3.107,7.48493,4.07437,11.80637,2.171a66.77937,66.77937,0,0,0,9.18066-4.89254c4.39031-2.82291,8.55266-5.99774,12.87714-8.92667,2.59614-1.75833,3.4893-4.28583,3.64107-7.20074.151-2.89966.23536-5.804.27369-8.70731a2.723,2.723,0,0,0-.51075-1.8093c-2.33918-2.31625-2.01433-4.96109-1.40694-7.83316a38.83506,38.83506,0,0,0,.40623-6.09115c.01377-.27976-.23661-.6037-.16229-.84476,1.79643-5.82562,1.52582-12.47415,6.9-16.89152a5.63486,5.63486,0,0,0,1.75657-3.26108c.50747-3.33383,2.541-5.24739,5.2713-6.83074a8.977,8.977,0,0,0,2.30311-2.56752c1.02059-1.37617,1.62468-3.47854,2.9625-4.1311,6.3835-3.11385,12.10563-8.58817,20.21266-6.32a3.621,3.621,0,0,0,2.18344-.46942c7.62268-3.51222,14.51605-1.86413,20.86969,3.0318a3.40153,3.40153,0,0,0,3.55414.78714c3.39563-.97368,6.41693.34613,9.23077,2.2954a20.37862,20.37862,0,0,0,3.99079,2.1253c3.30038,1.32465,6.321,2.91406,7.9902,6.31162a3.4162,3.4162,0,0,0,1.53149,1.58728c2.71106,1.13128,3.83106,3.32464,4.53339,5.97839.51224,1.93549,1.31033,3.795,1.973,5.69113,2.57459,7.36676,1.832,14.22373-3.1708,20.40979-1.88468,2.33045-3.82346,4.61731-5.69608,6.95725a7.379,7.379,0,0,0-1.13678,7.11258c.9581,3.33541,1.67123,6.74038,2.58694,10.08889a11.01637,11.01637,0,0,1-2.573,10.53449,37.54484,37.54484,0,0,0-7.32654,12.68609,7.07584,7.07584,0,0,1-5.26715,4.858,20.35837,20.35837,0,0,0-4.5662,1.77865c-3.06619,1.72409-3.16888,3.60214.0048,5.24408a37.87665,37.87665,0,0,0,8.69867,2.99967c2.897.68261,5.928.77856,8.88223,1.24539,1.1217.17727,2.52307.35129,3.22748,1.07846,2.29226,2.36618,4.61236,1.84674,7.15188.67068,6.89142-3.19153,14.21854-4.15353,21.73023-4.20749a62.867,62.867,0,0,0,24.24859-4.76211c5.94162-2.48221,12.67765-3.04672,19.04407-4.5333,5.14053-1.20034,10.43234-2.03939,15.33463-3.89193,4.77783-1.80555,5.42334-4.46869,2.47714-8.6377a180.27752,180.27752,0,0,0-12.19211-15.5018c-2.25888-2.55038-2.71051-5.07172-2.42758-8.19159,1.01227-11.16458,1.83569-22.34643,2.87283-33.50854.54459-5.86164,1.28394-11.71036,2.12369-17.53777.65839-4.56891.1319-5.87829-3.78323-8.452a23.04357,23.04357,0,0,1-4.70926-3.795c-2.34919-2.66619-2.6474-5.71236-.45557-8.20439,2.68762-3.05579,2.37088-6.41106,1.81964-9.84406-1.23-7.66011-2.40466-15.34041-.78088-23.04167a28.97041,28.97041,0,0,1,3.29968-8.56055c1.92358-3.27476,5.09683-3.45743,7.76889-.721,1.737,1.77888,3.13544,3.88837,4.94949,6.18365,1.12766-1.42045,2.17539-2.75094,3.23444-4.07237,6.00357-7.491,12.06424-14.93626,19.93268-20.61331,4.73022-3.41281,9.75662-5.63519,15.67755-3.07076a7.44819,7.44819,0,0,1,2.53741,1.35437c3.23557,3.47738,7.48987,3.7358,11.7631,3.85749,13.53466.38537,27.05767.87115,40.395,3.50314,8.21387,1.62094,16.0835,4.18787,23.144,8.81229,4.49054,2.94108,7.7063,6.79222,7.87439,12.46948.21869,7.38568,4.39331,12.94073,8.78644,18.19794,4.64831,5.56244,9.70959,10.80417,14.8587,15.91581,4.00745,3.97826,6.08008,8.1772,4.787,14.01772-.96363,4.35251.15777,8.63525,2.50634,12.51663,2.95514,4.88393,5.8335,9.8145,8.81025,14.68507,4.03949,6.60944,4.41119,14.31482,6.37023,21.53418.41,1.51081-.77435,3.46814-1.26806,5.20722-.86139,3.03448-1.65582,6.09378-2.67273,9.07642-.72339,2.12176-1.37445,4.45654-2.74872,6.12826-2.72565,3.31537-3.49231,7.18378-3.48425,11.10123a84.5651,84.5651,0,0,0,1.24573,15.56415c2.03643,10.702,1.31982,21.39666.73419,32.1094-.36927,6.755-1.02625,13.49387-1.49842,20.24384-.99853,14.27481-1.69989,28.57772-3.09295,42.81332a35.34116,35.34116,0,0,1-4.23853,12.82339c-7.7265,14.40241-15.52264,28.792-24.006,42.75287-3.92975,6.46689-9.6723,11.80689-14.2803,17.89441a184.30322,184.30322,0,0,0-11.84659,17.1839c-4.43311,7.4906-9.84033,13.91315-17.23383,18.51007-7.80148,4.85065-13.288,11.57367-17.62466,19.6142a34.76123,34.76123,0,0,1-8.3053,9.88824c-13.43954,11.17078-28.21066,20.25422-43.76279,28.3125-10.07809,5.22193-19.25988,12.19544-28.74209,18.53547-4.1807,2.79528-8.21414,5.83746-12.13053,8.99572-6.7525,5.44519-14.90683,8.10163-22.62219,11.5998-7.65213,3.46942-15.48294,6.54528-23.24206,9.77764-.77723.32386-1.601.5362-3.007.999.46771-3.928.66961-7.44654,1.335-10.87512,2.13028-10.97834,4.07449-22.01154,6.74753-32.8617,4.61538-18.7345,12.92971-35.976,22.81738-52.43512A154.88253,154.88253,0,0,0,313.32346,497.656c2.53942-7.57458,5.88226-14.8898,9.06625-22.23416,1.61572-3.72683,1.72568-6.55734-.93488-10.30981-4.64352-6.54935-4.88424-14.53436-4.161-22.33151,1.352-14.57639,7.65839-27.47922,14.51911-40.03925,2.64886-4.8494,3.40423-9.05286.81137-13.97-1.93125-3.6626-3.44773-7.543-5.17264-11.31552a3.92945,3.92945,0,0,0-5.02591-2.2869c-9.61569,2.495-19.30624,4.76435-28.76532,7.76062-2.75561.8729-5.24036,3.56259-7.144,5.97589-4.906,6.21958-9.63928,12.604-13.99909,19.21442a63.85723,63.85723,0,0,0-5.77685,11.874c-2.49658,6.35785-4.18643,13.05954-7.01328,19.2526-2.61111,5.72027-3.80429,10.66906,1.89661,15.07864a2.33784,2.33784,0,0,1,.47147.71634A4.6608,4.6608,0,0,1,262.19934,455.88917ZM247.91824,347.4939c.03192,5.58411,4.65625,10.48993,9.898,10.50062,6.24546.01275,11.31073-4.73722,11.22443-10.52567A10.71765,10.71765,0,0,0,258.21817,336.882a10.30116,10.30116,0,0,0-10.30463,10.2977Q247.9135,347.33681,247.91824,347.4939ZM410.0795,198.79934a6.196,6.196,0,0,0,6.51843-5.85584q.01089-.20363.00839-.40762a6.40958,6.40958,0,0,0-6.1885-6.6233l-.065-.00188a6.50139,6.50139,0,0,0-6.5834,6.33029,6.3911,6.3911,0,0,0,6.22116,6.55664Zm33.872,130.81105a5.89092,5.89092,0,1,0-.00684.24521Q443.95067,329.7331,443.95151,329.61039ZM212.2533,279.43556c2.53387-1.26252,4.31509-2.99991,3.31747-6.1081a4.57414,4.57414,0,0,0-8.6821.0445c-.86221,3.08365.76718,5.10992,3.55289,6.35287-2.65061,2.33966-3.1196,3.99753-1.55121,5.67252,1.51324,1.616,3.22553,1.56549,4.857.14187C215.51443,283.99726,215.13028,282.40339,212.2533,279.43556Zm-136.8975-1.7204a5.11781,5.11781,0,0,0-4.85755,5.08258,5.18381,5.18381,0,0,0,4.89782,5.38153,4.93906,4.93906,0,0,0,5.28661-5.1872,5.22132,5.22132,0,0,0-5.16434-5.27768q-.08127-.00087-.16255.00077ZM412.94748,445.328a5.31482,5.31482,0,0,0-5.17532-5.18719,5.25173,5.25173,0,0,0-5.16181,5.18045,5.1285,5.1285,0,0,0,5.11466,5.1423l.01934,0A5.247,5.247,0,0,0,412.94748,445.328ZM73.334,86.62322a5.22144,5.22144,0,0,0,5.38927-4.95038A5.3397,5.3397,0,0,0,73.6494,76.3465,5.18947,5.18947,0,0,0,68.349,81.39981a4.7998,4.7998,0,0,0,4.985,5.22341ZM33.83029,189.98452a5.50129,5.50129,0,0,0-5.454-5.26811,5.38261,5.38261,0,0,0-4.83364,5.49241,5.53074,5.53074,0,0,0,4.92019,5.15935A5.64241,5.64241,0,0,0,33.83029,189.98452Zm80.49137-116.7277c3.21763.00565,5.415-2.07,5.41178-5.11188a5.19123,5.19123,0,0,0-5.15818-5.1677,5.13131,5.13131,0,0,0-5.0481,5.21318l.0006.031a4.864,4.864,0,0,0,4.68911,5.03281Q114.26927,73.2561,114.32166,73.25682ZM59.01108,178.70156c.05168-2.64184-2.5674-5.49859-4.9907-5.44357a5.62175,5.62175,0,0,0-5.40629,5.367,5.19864,5.19864,0,1,0,10.397.07662Zm374.66257,173.981a5.12614,5.12614,0,0,0-5.25129,4.99787l-.00009.00415a5.02933,5.02933,0,0,0,4.91672,5.13949q.08221.00185.1644.00095a5.072,5.072,0,1,0,.23-10.14139l-.05982-.001Zm.6224-55.59237a4.607,4.607,0,0,0,4.971-4.21164q.00879-.10662.01266-.21356a4.74548,4.74548,0,0,0-9.46185-.74265l-.00183.02429c-.21158,3.03665,1.483,4.9823,4.48,5.14353Zm4.38181-117.66738a4.42853,4.42853,0,1,0-8.85706.0084q.00018.179.0148.3576a4.425,4.425,0,1,0,8.84455-.31047Zm-59.31519-35.73689a4.35267,4.35267,0,0,0-4.40329-4.30142q-.04819.00057-.0964.0022a4.24664,4.24664,0,0,0-4.35868,4.67907,4.43392,4.43392,0,0,0,8.85837-.37983Zm-1.06732,311.45422a4.26623,4.26623,0,0,0-4.19009,4.2678,4.38887,4.38887,0,0,0,4.37942,4.39831l.02527,0a4.67348,4.67348,0,0,0,4.28573-4.62939A4.49475,4.49475,0,0,0,378.29535,455.14014Zm32.41614-141.84271a4.04183,4.04183,0,0,0,3.98321-4.08856,4.00615,4.00615,0,1,0-4.13583,4.087Q410.63513,313.2981,410.71149,313.29743Zm-4.69071-147.06465.03061-1.35278c-1.22684-.90714-2.34677-2.30977-3.706-2.60291-1.93866-.41806-3.22309.92467-3.33887,2.99686-.12582,2.252,1.25543,3.6654,3.24481,3.45433,1.32981-.14107,2.51792-1.61693,3.76944-2.49548Zm8.902,86.557-1.39362.02057c-.86868,1.27036-2.308,2.47345-2.46768,3.82742-.22076,1.87256,1.15653,3.24125,3.28784,3.18964,2.09989-.05081,3.47983-1.41128,3.18146-3.29559-.21383-1.35111-1.6932-2.50186-2.608-3.742Zm11.47327-14.439c-.73069-.54407-1.86676-2.01139-3.21839-2.248-1.93591-.339-3.26342,1.10629-3.30682,3.16715a2.98676,2.98676,0,0,0,3.20691,3.33325c2.02887.03039,3.26733-1.0315,3.31833-4.25238Zm-223.86545,47.431c2.9118-.29093,4.18481-1.18253,4.26669-3.33939a2.88882,2.88882,0,0,0-3.12347-3.33642c-2.02167-.04-3.54158,1.29528-3.33553,3.19354C200.48523,283.653,201.916,284.86723,202.53061,285.78178ZM77.30463,94.79822l1.37211-.02914c.7876-1.2165,2.12825-2.38889,2.22965-3.66011a2.49458,2.49458,0,0,0-3.204-2.72685c-1.15988.33891-2.71291,1.88269-2.72946,2.90765C74.95428,92.4464,76.4612,93.62766,77.30463,94.79822ZM401.44449,479.12293c-1.85062-1.46527-2.75595-2.68664-3.89173-2.96408a2.26514,2.26514,0,0,0-2.95135,2.53186c.15317,1.09534,1.49319,2.72837,2.43463,2.82578C398.13177,481.62986,399.37378,480.32963,401.44449,479.12293Z" transform="translate(0.00096 0.00008)"/><path class="bdc1d971-f27d-44f6-b7fe-725f8a67f935" d="M264.618,630.79347c5.85-1.90931,10.9722-3.49915,16.03922-5.24891,25.776-8.90069,48.30606-23.36316,69.28552-40.48712,5.6568-4.61719,5.96069-4.75561,10.41577,1.18927,7.00772,9.3512,13.62711,18.99347,20.80746,29.06879-17.39636,9.10266-34.9436,16.76062-52.40841,24.48828-4.35437-7.14362-8.87552-9.37823-14.225-7.09894-4.47656,1.90747-8.07519,5.94037-5.17032,14.843q-9.78987,3.81417-19.62079,7.64264a272.38067,272.38067,0,0,1-57.85351,15.105c-1.04791.15918-2.12967.08038-3.18949.1792-4.68087.43591-4.674.44482-4.69714-4.34174-.17963-37.19922-.26514-74.39941-.63443-111.59668a49.74137,49.74137,0,0,1,3.16669-18.67377c.51529-1.34118.91788-2.7257,1.51391-4.51538-3.6249-.76355-7.06277-1.55029-10.52752-2.19171-1.81037-.33514-2.95417-.84161-2.93613-3.08551.01743-2.172.27612-3.60583,2.7713-4.1449,19.82688-4.284,37.79334-12.80938,54.60523-24.00091,3.20761-2.13525,6.73806-3.78595,10.12182-5.656,1.68344-.93048,2.85483-.81274,4.01013,1.08582,2.96717,4.8761,6.14118,9.63031,9.35264,14.3515a47.16034,47.16034,0,0,0,3.94482,4.62927,3.84678,3.84678,0,0,1,.45392,5.22724c-9.7367,15.13665-16.68061,31.58453-22.742,48.45886-5.77743,16.08374-9.09735,32.6911-10.96533,49.62646C265.60968,620.4203,265.17538,625.20374,264.618,630.79347Z" transform="translate(0.00096 0.00008)"/><path class="bdc1d971-f27d-44f6-b7fe-725f8a67f935" d="M179.58521,671.46571c-3.5857,3.21893-7.08994,6.53485-10.77706,9.63305a32.0231,32.0231,0,0,0-10.60043,15.42633c-4.86466,15.37555-15.39725,26.89392-27.98169,36.53382a88.04311,88.04311,0,0,1-13.69051,8.69616A29.63342,29.63342,0,0,0,102.351,756.45612c-7.42735,16.36786-18.32041,30.28131-31.14051,42.67255a131.81532,131.81532,0,0,1-15.86843,12.61121c-5.81923,4.09991-12.53443,4.1922-19.24254,2.68963a9.08026,9.08026,0,0,1-4.45986-2.52612A79.96366,79.96366,0,0,1,24.0172,802.44c-3.01481-4.50037-1.66384-9.53747-.93261-14.38647,1.56134-10.35321,8.313-16.98139,16.56044-22.35749A167.28434,167.28434,0,0,0,68.73818,741.7862c7.24069-7.48578,11.1985-16.41589,13.28793-26.25964,3.30174-15.55524,11.10753-28.39557,21.93805-39.82715,6.50036-6.86114,12.18072-14.49634,18.32841-21.69934a3.18723,3.18723,0,0,1,2.73973-.89642q9.28446,3.2784,18.42227,6.9616a3.32105,3.32105,0,0,1,1.57274,2.448c.26815,4.35639,2.56034,7.73224,6.29634,8.83332,3.91112,1.15271,7.44053-.23291,10.09093-3.84778.447-.60968,1.36582-1.48639,1.84573-1.36511,5.38778,1.3609,10.73227,2.89312,16.08837,4.37933Z" transform="translate(0.00096 0.00008)"/><path class="bdc1d971-f27d-44f6-b7fe-725f8a67f935" d="M364.02213,630.22779c-2.96,8.38654-.35065,16.11261.50439,23.91962q1.52911,13.9606,2.79068,27.95019c1.00476,11.25855,1.74353,22.54151,2.8205,33.79261.79022,8.25579,1.95343,16.47546,2.92437,24.71429.73065,6.19983,3.65708,11.31921,7.68323,15.92853a108.63542,108.63542,0,0,0,27.93948,22.44147c3.01151,1.7395,6.01105,3.51574,8.88956,5.46228a13.657,13.657,0,0,1,3.49356,3.4284c2.40082,3.45007,1.25263,7.44574-2.75781,8.55866a41.62361,41.62361,0,0,1-11.38956,1.7481q-27.14185-.29424-54.275-1.1922c-5.02976-.17279-10.13944-.60418-14.36325-4.38745a15.57624,15.57624,0,0,1-5.5326-12.21789c-.00735-4.06592-.19021-8.15729.18244-12.19318,1.04654-11.33533-1.23563-21.98889-5.26428-32.554-5.11856-13.42328-10.11252-26.93872-14.1561-40.70935-2.22665-7.58326-2.63083-15.74793-3.40375-23.69452a117.22131,117.22131,0,0,1-.05542-14.73841c.11017-3.74646,2.27927-5.26159,5.98413-4.518a10.21428,10.21428,0,0,0,11.01889-4.62457,6.99446,6.99446,0,0,1,2.63648-2.48108c10.76346-4.80072,21.57541-9.49292,32.38067-14.19971A13.4739,13.4739,0,0,1,364.02213,630.22779Z" transform="translate(0.00096 0.00008)"/><path class="bdc1d971-f27d-44f6-b7fe-725f8a67f935" d="M151.741,525.06605c2.54953.30432,4.62288.70215,6.7077.776,12.57846.445,25.14009.306,37.6302-1.4939,1.5461-.22284,2.794-.1784,2.65844,1.86658-.10582,1.596,1.32856,3.87006-1.92121,4.09064-2.67308.18139-5.33105.58551-8.533.95245,1.35766,3.32874,2.66154,6.28082,3.7529,9.30945a11.74731,11.74731,0,0,1,.845,4.4743c-.644,11.48774-1.43894,22.9668-2.14871,34.451-.45934,7.43219-.864,14.86768-1.27535,22.3028-.75874,13.71356-1.56326,27.42505-2.23183,41.143-.3578,7.34217-.4694,14.69635-.699,22.045-.03552,1.13714-.10793,2.27319-.20564,4.28082-5.41813-1.07593-10.47037-2.0539-15.50933-3.09589-1.41357-.29236-2.78738-.77588-4.18084-1.16668-2.1621-.60645-3.62284-1.34845-4.27984-4.12073a8.50587,8.50587,0,0,0-14.12409-4.478,3.08292,3.08292,0,0,1-3.86124.47022c-5.80194-2.64527-11.57265-5.36573-17.44234-7.852-2.13322-.90351-2.63591-2.21216-2.32356-4.28363,1.91478-12.69867,3.93761-25.37879,8.73411-37.39215q5.69152-14.255,11.68993-28.38587a33.9256,33.9256,0,0,1,4.48633-7.77264c8.16514-10.26508,8.86569-21.652,5.55685-33.75348C153.98322,533.47108,152.93227,529.5,151.741,525.06605Z" transform="translate(0.00096 0.00008)"/><path class="bdc1d971-f27d-44f6-b7fe-725f8a67f935" d="M192.6376,534.341c3.591-.64,6.50493-1.1593,9.6251-1.71539a49.20245,49.20245,0,0,0-.04038-5.42267c-.24625-2.205.71057-2.91107,2.74469-3.06738,5.48053-.421,5.47485-.47211,5.93887,5.13989.05494.66431.14219,1.32593.212,1.96606,4.1087.854,8.11749,1.68726,12.32135,2.5611a10.89188,10.89188,0,0,1-.521,2.30273c-2.62268,5.07483-2.768,10.48676-2.74524,16.06891.136,33.42121.05014,66.84327.13623,100.26477.0177,6.86628.4719,13.7309.66739,20.59784a7.68306,7.68306,0,0,1-.40722,3.37952c-4.30033,9.08813-8.70471,18.12708-13.09311,27.17334a13.644,13.644,0,0,1-1.07718,1.51556c-.67575-1.09588-1.24057-1.92511-1.71909-2.80145-4.358-7.9801-8.75982-15.93725-12.99664-23.98132a10.98683,10.98683,0,0,1-1.36507-5.19617c.64084-19.7254,1.40464-39.447,2.18819-59.1676.34573-8.7013.73837-17.402,1.24013-26.09546.66871-11.586,1.46365-23.16486,2.20645-34.74658.20425-3.18488.52588-6.368.56213-9.55463a8.56346,8.56346,0,0,0-1.09059-3.19531C194.60028,538.47706,193.69815,536.62135,192.6376,534.341Zm18.93152,54.48676a5.3,5.3,0,0,0-5.32284,5.05328,5.41678,5.41678,0,0,0,5.33569,5.39636,5.2366,5.2366,0,0,0,5.07809-5.26617,5.04742,5.04742,0,0,0-4.90939-5.18183Q211.66,588.82695,211.56912,588.82777Zm-2.53811-3.37549,1.38382.01117c.89428-1.24085,2.33819-2.39319,2.55572-3.74323.3378-2.09613-1.13663-3.38134-3.35266-3.35473-2.13043.02557-3.42581,1.44159-3.1264,3.31054.2178,1.3595,1.64917,2.52454,2.53945,3.77625Zm1.56189-18.04389-1.39063-.04962c-.9324,1.21692-2.38037,2.32245-2.673,3.67749-.41025,1.89984.90945,3.3454,2.96786,3.45978,2.14664.11914,3.77258-1.05579,3.48636-3.22162C212.80249,569.90443,211.43066,568.69172,210.5929,567.40839Z" transform="translate(0.00096 0.00008)"/><path class="bdc1d971-f27d-44f6-b7fe-725f8a67f935" d="M283.79694,483.40821c-21.9513,13.38141-43.845,26.543-69.06165,34.414.41129-5.069-1.30392-9.59033,1.91058-14.02954a22.969,22.969,0,0,0,4.55194-13.83423c-.02569-2.53021-1.09268-4.07037-3.35888-4.79513-4.64993-1.48715-9.09186-.98123-12.75772,2.35394a29.37078,29.37078,0,0,0-5.95566,7.06143c-.95815,1.70783-.79111,4.18335-.72623,6.30255.17954,5.86267.604,11.71772.80846,17.58008.01535.43964-.91527,1.27417-1.45606,1.31861-15.20884,1.25079-30.416,3.34722-45.66769.61816a3.46709,3.46709,0,0,1-2.3678-1.84338,29.36391,29.36391,0,0,1,2.19338-21.91358,4.20436,4.20436,0,0,1,3.70849-2.70556c22.195-1.91962,43.37418-8.16593,64.37317-15.17042.9115-.304,1.82083-.61447,2.40167-.81066-.39706,2.16391-1.155,4.40872-1.13055,6.645.02969,2.71353,2.055,4.284,4.49216,5.11343,3.81122,1.297,7.60556-1.0235,8.54742-5.12271.89884-3.91208-1.8295-7.38971-6.90015-8.30765,3.71586-1.5087,7.09467-2.84244,10.44361-4.2475,9.62314-4.03738,19.26123-8.04141,28.82739-12.21011,1.94324-.84677,2.90314-.54251,4.37494.9902C277.19336,467.215,279.5528,475.64991,283.79694,483.40821ZM181.97662,519.79285a6.68143,6.68143,0,0,0,6.65966-6.60144,6.93909,6.93909,0,0,0-6.79731-6.84472,6.56553,6.56553,0,0,0-6.64114,6.489q-.002.17523.0053.3504a6.30871,6.30871,0,0,0,6.77349,6.60675Z" transform="translate(0.00096 0.00008)"/><path class="bdc1d971-f27d-44f6-b7fe-725f8a67f935" d="M205.37161,491.135c2.46311-3.32233,6.37964-4.67078,9.841-3.3693,2.06219.77533,3.35781,2.40152,2.26324,4.53324-1.569,3.05554-3.656,5.84057-5.369,8.82879a10.88,10.88,0,0,0-1.64474,4.34076,78.95588,78.95588,0,0,0-.03479,10.14942c.13968,2.47845-.82749,3.35632-3.1619,3.08362a6.49,6.49,0,0,0-1.1597.015c-4.50277.28894-4.52331.29053-4.57974-4.40845-.03793-3.1604-.00723-6.32159-.00723-9.52307,5.65912.46234,8.69122-1.255,9.64157-5.05743C212.0347,496.22907,210.21609,493.46241,205.37161,491.135Z" transform="translate(0.00096 0.00008)"/></svg>